<svg width="690" height="327" viewBox="0 0 690 327" fill="none" xmlns="http://www.w3.org/2000/svg">
<path fill-rule="evenodd" clip-rule="evenodd" d="M369.074 93.4522C384.154 84.8426 394.32 68.6084 394.32 50C394.32 22.3858 371.934 0 344.32 0C316.706 0 294.32 22.3858 294.32 50C294.32 68.7543 304.645 85.0969 319.921 93.6533C319.664 93.7455 319.407 93.8385 319.149 93.9323C314.703 95.3369 310.414 97.0971 306.317 99.1797C286.061 108.299 262.567 122.483 227.371 143.732C223.897 145.83 220.307 147.997 216.596 150.235C171.692 177.31 115.966 171.563 78.2796 156.864C75.9463 147.076 67.1796 124.2 56.7796 127C49.675 128.913 51.3439 134.979 53.1149 141.416C53.9363 144.402 54.7797 147.467 54.7797 150.235C18.2796 107 -25.7943 161.033 18.7796 182.5C67.449 205.939 183.265 231.876 259.78 180.268V327H430.78V180.936C507.299 231.65 622.322 205.837 670.78 182.5C715.354 161.033 671.28 107 634.78 150.235C634.78 147.467 635.623 144.402 636.444 141.416C638.215 134.979 639.884 128.913 632.78 127C622.38 124.2 613.613 147.076 611.28 156.864C573.593 171.563 517.867 177.31 472.963 150.235C469.252 147.997 465.663 145.831 462.189 143.733C428.123 123.166 405.02 109.217 385.205 100.074C380.25 97.4308 375.007 95.2581 369.534 93.6159C369.38 93.5611 369.227 93.5065 369.074 93.4522ZM317 55C319.761 55 322 52.7614 322 50C322 47.2386 319.761 45 317 45C314.238 45 312 47.2386 312 50C312 52.7614 314.238 55 317 55ZM377 50C377 52.7614 374.761 55 372 55C369.238 55 367 52.7614 367 50C367 47.2386 369.238 45 372 45C374.761 45 377 47.2386 377 50Z" fill="#635C65"/>
</svg>
